<!-- Generated by AI -->

<svg xmlns="http://www.w3.org/2000/svg" xmlns:xlink="http://www.w3.org/1999/xlink" version="1.1" width="100%" height="100%" viewBox="0 0 1600 1200">

<image x="0" y="0" width="1600px" height="1200px" xlink:href="P31FRAMB25051302384_Mode3_Zone_4_14.04.53.bmp"/>

<text x="415.63006591796875" y="786.3767700195312" style="font-family:Arial;font-size:12pt;font-style:normal;font-weight:normal;fill:#4466ff" author="ai">40.492 mm</text>

<line x1="413.63006591796875" y1="576.2887573242188" x2="414.4486083984375" y2="996.4647827148438" stroke-width="1" stroke="#4466ff" author="ai" />

<polyline points="0,0 -6,-3 -5,0 -6,3" fill="#4466ff" stroke="#4466ff" transform="translate(413.63006591796875 576.2887573242188) rotate(-90)" author="ai"/>

<polyline points="0,0 -6,-3 -5,0 -6,3" fill="#4466ff" stroke="#4466ff" transform="translate(414.4486083984375 996.4647827148438) rotate(90)" author="ai"/>

<text x="1064.615478515625" y="738.971435546875" style="font-family:Arial;font-size:12pt;font-style:normal;font-weight:normal;fill:#4466ff" author="ai">40.017 mm</text>

<line x1="1062.615478515625" y1="531.347900390625" x2="1061.68017578125" y2="946.594970703125" stroke-width="1" stroke="#4466ff" author="ai" />

<polyline points="0,0 -6,-3 -5,0 -6,3" fill="#4466ff" stroke="#4466ff" transform="translate(1062.615478515625 531.347900390625) rotate(-90)" author="ai"/>

<polyline points="0,0 -6,-3 -5,0 -6,3" fill="#4466ff" stroke="#4466ff" transform="translate(1061.68017578125 946.594970703125) rotate(90)" author="ai"/>

<text x="439.67462158203125" y="698.9599609375" style="font-family:Arial;font-size:12pt;font-style:normal;font-weight:normal;fill:#4466ff" author="ai">24.526 mm</text>

<line x1="437.67462158203125" y1="571.7092895507812" x2="437.67462158203125" y2="826.2106323242188" stroke-width="1" stroke="#4466ff" author="ai" />

<polyline points="0,0 -6,-3 -5,0 -6,3" fill="#4466ff" stroke="#4466ff" transform="translate(437.67462158203125 571.7092895507812) rotate(-90)" author="ai"/>

<polyline points="0,0 -6,-3 -5,0 -6,3" fill="#4466ff" stroke="#4466ff" transform="translate(437.67462158203125 826.2106323242188) rotate(90)" author="ai"/>

<text x="632.9915771484375" y="708.9599609375" style="font-family:Arial;font-size:12pt;font-style:normal;font-weight:normal;fill:#4466ff" author="ai">Tape Grayscale: 90</text>

<text x="1070.2640380859375" y="693.2633666992188" style="font-family:Arial;font-size:12pt;font-style:normal;font-weight:normal;fill:#4466ff" author="ai">24.573 mm</text>

<line x1="1068.2640380859375" y1="565.7700805664062" x2="1068.2640380859375" y2="820.7566528320312" stroke-width="1" stroke="#4466ff" author="ai" />

<polyline points="0,0 -6,-3 -5,0 -6,3" fill="#4466ff" stroke="#4466ff" transform="translate(1068.2640380859375 565.7700805664062) rotate(-90)" author="ai"/>

<polyline points="0,0 -6,-3 -5,0 -6,3" fill="#4466ff" stroke="#4466ff" transform="translate(1068.2640380859375 820.7566528320312) rotate(90)" author="ai"/>

<text x="825.6575317382812" y="703.2633666992188" style="font-family:Arial;font-size:12pt;font-style:normal;font-weight:normal;fill:#4466ff" author="ai">Tape Grayscale: 59</text>

<text x="632.9915771484375" y="688.9599609375" style="font-family:Arial;font-size:12pt;font-style:normal;font-weight:normal;fill:#dd0099" author="ai">Overlap: True</text>

<text x="825.6575317382812" y="683.2633666992188" style="font-family:Arial;font-size:12pt;font-style:normal;font-weight:normal;fill:#4466ff" author="ai">Overlap: False</text>

</svg>

