<!-- Generated by AI -->

<svg xmlns="http://www.w3.org/2000/svg" xmlns:xlink="http://www.w3.org/1999/xlink" version="1.1" width="100%" height="100%" viewBox="0 0 1600 1200">

<image x="0" y="0" width="1600px" height="1200px" xlink:href="P31FRAMA25061002871_Mode3_Short Tape 1_19.24.44.bmp"/>

<text x="531.9744873046875" y="658.8629913330078" style="font-family:Arial;font-size:12pt;font-style:normal;font-weight:normal;fill:#4466ff" author="ai">42.264 mm</text>

<line x1="529.9744873046875" y1="445.9956359863281" x2="531.3976440429688" y2="871.7303466796875" stroke-width="1" stroke="#4466ff" author="ai" />

<polyline points="0,0 -6,-3 -5,0 -6,3" fill="#4466ff" stroke="#4466ff" transform="translate(529.9744873046875 445.9956359863281) rotate(-90)" author="ai"/>

<polyline points="0,0 -6,-3 -5,0 -6,3" fill="#4466ff" stroke="#4466ff" transform="translate(531.3976440429688 871.7303466796875) rotate(90)" author="ai"/>

<text x="1105.21826171875" y="662.6039428710938" style="font-family:Arial;font-size:12pt;font-style:normal;font-weight:normal;fill:#4466ff" author="ai">40.130 mm</text>

<line x1="1103.21826171875" y1="460.4837646484375" x2="1098.3555908203125" y2="864.72412109375" stroke-width="1" stroke="#4466ff" author="ai" />

<polyline points="0,0 -6,-3 -5,0 -6,3" fill="#4466ff" stroke="#4466ff" transform="translate(1103.21826171875 460.4837646484375) rotate(-90)" author="ai"/>

<polyline points="0,0 -6,-3 -5,0 -6,3" fill="#4466ff" stroke="#4466ff" transform="translate(1098.3555908203125 864.72412109375) rotate(90)" author="ai"/>

<text x="556.6385498046875" y="705.3460693359375" style="font-family:Arial;font-size:12pt;font-style:normal;font-weight:normal;fill:#dd0099" author="ai">25.944 mm</text>

<line x1="554.6385498046875" y1="574.6766662597656" x2="554.6385498046875" y2="836.0154724121094" stroke-width="1" stroke="#dd0099" author="ai" />

<polyline points="0,0 -6,-3 -5,0 -6,3" fill="#dd0099" stroke="#dd0099" transform="translate(554.6385498046875 574.6766662597656) rotate(-90)" author="ai"/>

<polyline points="0,0 -6,-3 -5,0 -6,3" fill="#dd0099" stroke="#dd0099" transform="translate(554.6385498046875 836.0154724121094) rotate(90)" author="ai"/>

<text x="738.2522583007812" y="715.3460693359375" style="font-family:Arial;font-size:12pt;font-style:normal;font-weight:normal;fill:#4466ff" author="ai">Tape Grayscale: 79</text>

<text x="1115.342041015625" y="703.2485961914062" style="font-family:Arial;font-size:12pt;font-style:normal;font-weight:normal;fill:#4466ff" author="ai">24.171 mm</text>

<line x1="1113.342041015625" y1="581.50732421875" x2="1113.342041015625" y2="824.9898681640625" stroke-width="1" stroke="#4466ff" author="ai" />

<polyline points="0,0 -6,-3 -5,0 -6,3" fill="#4466ff" stroke="#4466ff" transform="translate(1113.342041015625 581.50732421875) rotate(-90)" author="ai"/>

<polyline points="0,0 -6,-3 -5,0 -6,3" fill="#4466ff" stroke="#4466ff" transform="translate(1113.342041015625 824.9898681640625) rotate(90)" author="ai"/>

<text x="883.7662353515625" y="713.2485961914062" style="font-family:Arial;font-size:12pt;font-style:normal;font-weight:normal;fill:#4466ff" author="ai">Tape Grayscale: 88</text>

<text x="738.2522583007812" y="695.3460693359375" style="font-family:Arial;font-size:12pt;font-style:normal;font-weight:normal;fill:#4466ff" author="ai">Overlap: False</text>

<text x="883.7662353515625" y="693.2485961914062" style="font-family:Arial;font-size:12pt;font-style:normal;font-weight:normal;fill:#4466ff" author="ai">Overlap: False</text>

</svg>

