<!-- Generated by AI -->

<svg xmlns="http://www.w3.org/2000/svg" xmlns:xlink="http://www.w3.org/1999/xlink" version="1.1" width="100%" height="100%" viewBox="0 0 1600 1200">

<image x="0" y="0" width="1600px" height="1200px" xlink:href="P31FRAMA25060103137_Mode3_Long Tape 1_19.55.03.282.bmp"/>

<text x="473.28167724609375" y="627.3951721191406" style="font-family:Arial;font-size:12pt;font-style:normal;font-weight:normal;fill:#4466ff" author="ai">55.065 mm</text>

<line x1="471.28167724609375" y1="350.80902099609375" x2="469.16680908203125" y2="903.9813232421875" stroke-width="1" stroke="#4466ff" author="ai" />

<polyline points="0,0 -6,-3 -5,0 -6,3" fill="#4466ff" stroke="#4466ff" transform="translate(471.28167724609375 350.80902099609375) rotate(-90)" author="ai"/>

<polyline points="0,0 -6,-3 -5,0 -6,3" fill="#4466ff" stroke="#4466ff" transform="translate(469.16680908203125 903.9813232421875) rotate(90)" author="ai"/>

<text x="1056.521484375" y="531.7176055908203" style="font-family:Arial;font-size:12pt;font-style:normal;font-weight:normal;fill:#4466ff" author="ai">62.094 mm</text>

<line x1="1054.521484375" y1="219.8265380859375" x2="1053.8612060546875" y2="843.6086730957031" stroke-width="1" stroke="#4466ff" author="ai" />

<polyline points="0,0 -6,-3 -5,0 -6,3" fill="#4466ff" stroke="#4466ff" transform="translate(1054.521484375 219.8265380859375) rotate(-90)" author="ai"/>

<polyline points="0,0 -6,-3 -5,0 -6,3" fill="#4466ff" stroke="#4466ff" transform="translate(1053.8612060546875 843.6086730957031) rotate(90)" author="ai"/>

<text x="496.4498291015625" y="546.3331298828125" style="font-family:Arial;font-size:12pt;font-style:normal;font-weight:normal;fill:#4466ff" author="ai">40.383 mm</text>

<line x1="494.4498291015625" y1="343.4942321777344" x2="494.4498291015625" y2="749.1720275878906" stroke-width="1" stroke="#4466ff" author="ai" />

<polyline points="0,0 -6,-3 -5,0 -6,3" fill="#4466ff" stroke="#4466ff" transform="translate(494.4498291015625 343.4942321777344) rotate(-90)" author="ai"/>

<polyline points="0,0 -6,-3 -5,0 -6,3" fill="#4466ff" stroke="#4466ff" transform="translate(494.4498291015625 749.1720275878906) rotate(90)" author="ai"/>

<text x="683.5301513671875" y="556.3331298828125" style="font-family:Arial;font-size:12pt;font-style:normal;font-weight:normal;fill:#4466ff" author="ai">Tape Grayscale: 87</text>

<text x="1059.1136474609375" y="567.9794311523438" style="font-family:Arial;font-size:12pt;font-style:normal;font-weight:normal;fill:#4466ff" author="ai">38.354 mm</text>

<line x1="1057.1136474609375" y1="375.32989501953125" x2="1057.1136474609375" y2="760.6289672851562" stroke-width="1" stroke="#4466ff" author="ai" />

<polyline points="0,0 -6,-3 -5,0 -6,3" fill="#4466ff" stroke="#4466ff" transform="translate(1057.1136474609375 375.32989501953125) rotate(-90)" author="ai"/>

<polyline points="0,0 -6,-3 -5,0 -6,3" fill="#4466ff" stroke="#4466ff" transform="translate(1057.1136474609375 760.6289672851562) rotate(90)" author="ai"/>

<text x="821.2200927734375" y="577.9794311523438" style="font-family:Arial;font-size:12pt;font-style:normal;font-weight:normal;fill:#4466ff" author="ai">Tape Grayscale: 80</text>

<text x="683.5301513671875" y="536.3331298828125" style="font-family:Arial;font-size:12pt;font-style:normal;font-weight:normal;fill:#dd0099" author="ai">Overlap: True</text>

<text x="821.2200927734375" y="557.9794311523438" style="font-family:Arial;font-size:12pt;font-style:normal;font-weight:normal;fill:#4466ff" author="ai">Overlap: False</text>

</svg>

