<!-- Generated by AI -->

<svg xmlns="http://www.w3.org/2000/svg" xmlns:xlink="http://www.w3.org/1999/xlink" version="1.1" width="100%" height="100%" viewBox="0 0 1600 1200">

<image x="0" y="0" width="1600px" height="1200px" xlink:href="P31FRAMD25051400121_Mode5_21.09.21.038.bmp"/>

<text x="408.8" y="785.3" style="font-family:Arial;font-size:12pt;font-style:normal;font-weight:normal;fill:#4466ff">3.083 mm</text>
<line x1="408.8" y1="796.3" x2="408.8" y2="829.4" stroke-width="1" stroke="#4466ff" />
<polyline points="0,0 -6,-3 -5,0 -6,3" fill="#4466ff" stroke="#4466ff" transform="translate(408.8 829.4) rotate(90)"/>
<polyline points="0,0 -6,-3 -5,0 -6,3" fill="#4466ff" stroke="#4466ff" transform="translate(408.8 796.3) rotate(-90)"/>
<text x="323.9" y="997.3" style="font-family:Arial;font-size:12pt;font-style:normal;font-weight:normal;fill:#4466ff">6.080 mm</text>
<line x1="323.9" y1="1008.3" x2="258.6" y2="1008.3" stroke-width="1" stroke="#4466ff" />
<polyline points="0,0 -6,-3 -5,0 -6,3" fill="#4466ff" stroke="#4466ff" transform="translate(258.6 1008.3) rotate(180)"/>
<polyline points="0,0 -6,-3 -5,0 -6,3" fill="#4466ff" stroke="#4466ff" transform="translate(323.9 1008.3) rotate(0)"/>
<text x="1025.8" y="794.5" style="font-family:Arial;font-size:12pt;font-style:normal;font-weight:normal;fill:#4466ff">11.385 mm</text>
<line x1="1025.8" y1="805.5" x2="1025.8" y2="927.8" stroke-width="1" stroke="#4466ff" />
<polyline points="0,0 -6,-3 -5,0 -6,3" fill="#4466ff" stroke="#4466ff" transform="translate(1025.8 927.8) rotate(90)"/>
<polyline points="0,0 -6,-3 -5,0 -6,3" fill="#4466ff" stroke="#4466ff" transform="translate(1025.8 805.5) rotate(-90)"/>
<text x="883" y="1072.0" style="font-family:Arial;font-size:12pt;font-style:normal;font-weight:normal;fill:#4466ff" author="ai">5.214 mm</text>

<line x1="881" y1="1077" x2="936" y2="1077" stroke-width="1" stroke="#4466ff" author="ai" />

<polyline points="0,0 -6,-3 -5,0 -6,3" fill="#4466ff" stroke="#4466ff" transform="translate(881 1077) rotate(180)" author="ai"/>

<polyline points="0,0 -6,-3 -5,0 -6,3" fill="#4466ff" stroke="#4466ff" transform="translate(936 1077) rotate(0)" author="ai"/>

</svg>

